<?xml version="1.0" encoding="UTF-8" standalone="no"?> <svg id="Layer_1" data-name="Layer 1" xmlns="http://www.w3.org/2000/svg" viewBox="0 0 512 512"><defs><style>.cls-1{fill:#dde5e8;}.cls-2{fill:#9bbdc6;}.cls-3{fill:#afc3c9;}.cls-4{fill:#ef4848;}.cls-5{fill:#e8a52d;}</style></defs><title>document-and-pen-2-flat</title><path class="cls-1" d="M358.4,153.6V448a64,64,0,0,1-64,64H64A64,64,0,0,1,0,448V64A64,64,0,0,1,64,0H204.8Z"/><path class="cls-2" d="M358.4,153.6H268.8a64,64,0,0,1-64-64V0Z"/><path class="cls-3" d="M448,499.2A12.8,12.8,0,0,1,435.2,512h0a12.81,12.81,0,0,1-12.8-12.8V473.59a12.81,12.81,0,0,1,12.8-12.8h0A12.8,12.8,0,0,1,448,473.6Z"/><path class="cls-4" d="M512,230.4a12.8,12.8,0,0,0-12.8-12.8H473.6V192a38.4,38.4,0,0,0-76.8,0v51.19h89.6v25.6a12.8,12.8,0,0,0,25.6,0Z"/><path class="cls-3" d="M204.8,256A12.8,12.8,0,0,1,192,268.8H115.2A12.8,12.8,0,0,1,102.4,256h0a12.8,12.8,0,0,1,12.8-12.8H192A12.8,12.8,0,0,1,204.8,256Z"/><path class="cls-3" d="M256,307.2A12.8,12.8,0,0,1,243.2,320h-128a12.8,12.8,0,0,1-12.8-12.8h0a12.8,12.8,0,0,1,12.8-12.8h128A12.8,12.8,0,0,1,256,307.2Z"/><path class="cls-3" d="M255.62,358.4a12.8,12.8,0,0,1-12.8,12.8H115.2a12.8,12.8,0,0,1-12.8-12.8h0a12.8,12.8,0,0,1,12.8-12.8H242.82a12.8,12.8,0,0,1,12.8,12.8Z"/><path class="cls-5" d="M396.8,243.2V448a38.4,38.4,0,1,0,76.8,0V243.2Z"/></svg>