<svg width="24" height="24" viewBox="0 0 24 24" fill="none" xmlns="http://www.w3.org/2000/svg">
<path d="M11.971 22H11.071C8.42165 21.7651 5.9797 20.4693 4.30004 18.407C2.60411 16.3478 1.7923 13.701 2.04204 11.045C2.43533 6.22905 6.25292 2.40342 11.068 1.99999C11.462 1.99793 11.8333 2.18361 12.068 2.5C12.2875 2.84915 12.2465 3.30187 11.968 3.606C11.0113 4.90556 10.6152 6.53422 10.868 8.128C11.0782 9.71686 11.9536 11.1416 13.276 12.047C15.3768 13.6555 18.2952 13.6555 20.396 12.047C20.5873 11.9145 20.8134 11.8414 21.046 11.837C21.2038 11.8373 21.3593 11.8746 21.5 11.946C21.817 12.1825 22.0026 12.5556 22.0001 12.951C21.801 15.6324 20.4926 18.1092 18.39 19.785C16.5442 21.1943 14.2932 21.971 11.971 22ZM9.16304 4.311C6.22167 5.35162 4.17487 8.03424 3.94804 11.146C3.74761 13.2674 4.39674 15.3816 5.75304 17.025C7.09938 18.6691 9.05131 19.7015 11.168 19.889C11.43 19.914 11.696 19.927 11.958 19.927C13.8023 19.9417 15.589 19.2852 16.985 18.08C18.0691 17.168 18.8983 15.9908 19.392 14.663C18.5224 14.9771 17.6047 15.1375 16.68 15.137C14.9494 15.1366 13.2642 14.5834 11.87 13.558C10.1858 12.2776 9.04149 10.4134 8.66204 8.332C8.57175 6.972 8.74179 5.60727 9.16304 4.311Z" fill="#2E3A59"/>
</svg>
